<svg width="32" height="34" viewBox="0 0 32 34" fill="none" xmlns="http://www.w3.org/2000/svg">
<path fill-rule="evenodd" clip-rule="evenodd" d="M28.0904 0.5C30.2482 0.5 32 2.28721 32 4.48847V29.1569C32 31.3582 30.2481 33.1454 28.0904 33.1454H21.4361V20.845H25.5986L26.3906 15.5771H21.4361V12.1584C21.4361 10.7172 22.1282 9.3124 24.3474 9.3124H26.6V4.82749C26.6 4.82749 24.5556 4.47158 22.6011 4.47158C18.5206 4.47158 15.8536 6.99452 15.8536 11.562V15.5771H11.3178V20.845H15.8536V33.1454H3.90963C1.75188 33.1454 0 31.3582 0 29.1569V4.48847C0 2.28721 1.75181 0.5 3.90963 0.5L28.0904 0.5Z" fill="#F6F2EC"/>
</svg>
