<svg width="32" height="34" viewBox="0 0 32 34" fill="none" xmlns="http://www.w3.org/2000/svg">
<path fill-rule="evenodd" clip-rule="evenodd" d="M28.0904 0.5C30.2482 0.5 32 2.28721 32 4.48847V29.1569C32 31.3582 30.2481 33.1454 28.0904 33.1454H3.90963C1.75188 33.1454 0 31.3582 0 29.1569V4.48847C0 2.28721 1.75181 0.5 3.90963 0.5L28.0904 0.5ZM16 5.6646C13.0296 5.6646 12.6571 5.67742 11.4905 5.73174C10.3263 5.78594 9.53125 5.97454 8.8355 6.25043C8.11625 6.53557 7.50631 6.91711 6.89825 7.53737C6.29019 8.1577 5.91619 8.78 5.63669 9.51369C5.36631 10.2235 5.18144 11.0346 5.12825 12.2222C5.07506 13.4123 5.0625 13.7923 5.0625 16.8227C5.0625 19.853 5.07506 20.233 5.12825 21.4231C5.18144 22.6108 5.36631 23.4219 5.63669 24.1317C5.91619 24.8654 6.29019 25.4877 6.89825 26.108C7.50631 26.7283 8.11625 27.1099 8.8355 27.395C9.53125 27.6708 10.3263 27.8594 11.4905 27.9136C12.6571 27.968 13.0296 27.9808 16 27.9808C18.9704 27.9808 19.3429 27.968 20.5095 27.9136C21.6737 27.8594 22.4687 27.6708 23.1645 27.395C23.8837 27.1099 24.4937 26.7283 25.1017 26.108C25.7098 25.4877 26.0838 24.8654 26.3633 24.1317C26.6337 23.4219 26.8186 22.6108 26.8717 21.4231C26.9249 20.233 26.9375 19.853 26.9375 16.8227C26.9375 13.7923 26.9249 13.4123 26.8717 12.2222C26.8186 11.0346 26.6337 10.2235 26.3633 9.51369C26.0838 8.78 25.7098 8.1577 25.1017 7.53737C24.4937 6.91711 23.8837 6.53557 23.1645 6.25043C22.4687 5.97454 21.6737 5.78594 20.5095 5.73174C19.3429 5.67742 18.9704 5.6646 16 5.6646ZM16 7.6751C18.9204 7.6751 19.2664 7.68645 20.4197 7.74013C21.4861 7.7898 22.0652 7.97158 22.4506 8.12429C22.9612 8.32673 23.3255 8.56857 23.7083 8.95898C24.091 9.34945 24.328 9.72117 24.5264 10.242C24.6762 10.6352 24.8544 11.226 24.903 12.3139C24.9556 13.4904 24.9668 13.8434 24.9668 16.8227C24.9668 19.802 24.9556 20.1549 24.903 21.3315C24.8544 22.4194 24.6762 23.0102 24.5264 23.4034C24.328 23.9243 24.091 24.2959 23.7083 24.6864C23.3255 25.0769 22.9612 25.3186 22.4506 25.5211C22.0652 25.6739 21.4861 25.8556 20.4197 25.9052C19.2666 25.9589 18.9206 25.9703 16 25.9703C13.0794 25.9703 12.7335 25.9589 11.5803 25.9052C10.5139 25.8556 9.93481 25.6739 9.54937 25.5211C9.03881 25.3186 8.6745 25.0769 8.29175 24.6864C7.909 24.2959 7.67194 23.9243 7.47356 23.4034C7.32381 23.0102 7.14563 22.4194 7.09694 21.3315C7.04431 20.1549 7.03319 19.802 7.03319 16.8227C7.03319 13.8434 7.04431 13.4904 7.09694 12.3139C7.14563 11.226 7.32381 10.6352 7.47356 10.242C7.67194 9.72117 7.909 9.34945 8.29175 8.95898C8.6745 8.56857 9.03881 8.32673 9.54937 8.12429C9.93481 7.97158 10.5139 7.7898 11.5803 7.74013C12.7336 7.68645 13.0796 7.6751 16 7.6751ZM16 11.0929C12.8981 11.0929 10.3834 13.6582 10.3834 16.8227C10.3834 19.9872 12.8981 22.5525 16 22.5525C19.1019 22.5525 21.6166 19.9872 21.6166 16.8227C21.6166 13.6582 19.1019 11.0929 16 11.0929ZM16 20.542C13.9864 20.542 12.3542 18.8769 12.3542 16.8227C12.3542 14.7685 13.9864 13.1033 16 13.1033C18.0136 13.1033 19.6458 14.7685 19.6458 16.8227C19.6458 18.8769 18.0136 20.542 16 20.542ZM23.151 10.8665C23.151 11.606 22.5633 12.2054 21.8384 12.2054C21.1136 12.2054 20.526 11.606 20.526 10.8665C20.526 10.127 21.1136 9.52753 21.8384 9.52753C22.5633 9.52753 23.151 10.127 23.151 10.8665Z" fill="#F6F2EC"/>
</svg>
