<svg width="32" height="34" viewBox="0 0 32 34" fill="none" xmlns="http://www.w3.org/2000/svg">
<path fill-rule="evenodd" clip-rule="evenodd" d="M28.0904 0.5C30.2482 0.5 32 2.28721 32 4.48847V29.1569C32 31.3582 30.2481 33.1454 28.0904 33.1454H3.90963C1.75188 33.1454 0 31.3582 0 29.1569V4.48847C0 2.28721 1.75181 0.5 3.90963 0.5L28.0904 0.5ZM12.2199 27.5691C20.7161 27.5691 25.3617 20.387 25.3617 14.1623C25.3617 13.9572 25.3617 13.7519 25.3521 13.5565C26.2525 12.892 27.0379 12.0614 27.6606 11.1136C26.8368 11.4849 25.946 11.739 25.0073 11.8563C25.9652 11.2699 26.6931 10.3514 27.0379 9.24718C26.1472 9.78461 25.1606 10.1755 24.1069 10.3905C23.264 9.47193 22.0667 8.90517 20.7353 8.90517C18.1874 8.90517 16.1184 11.0159 16.1184 13.6152C16.1184 13.9865 16.1567 14.348 16.2429 14.69C12.4019 14.4946 9.00156 12.6184 6.72188 9.7651C6.32913 10.4589 6.09925 11.2699 6.09925 12.1299C6.09925 13.7617 6.91344 15.208 8.15862 16.0483C7.40194 16.0287 6.69312 15.8138 6.0705 15.462V15.5206C6.0705 17.8072 7.66056 19.7029 9.77744 20.1426C9.39431 20.2501 8.98244 20.3088 8.56094 20.3088C8.264 20.3088 7.97669 20.2795 7.68931 20.2208C8.27362 22.097 9.97856 23.4552 11.9996 23.4943C10.4192 24.7549 8.42688 25.5073 6.26213 25.5073C5.88856 25.5073 5.52456 25.4878 5.16056 25.4389C7.18163 26.7874 9.61456 27.5691 12.2199 27.5691Z" fill="#F6F2EC"/>
</svg>
